# xmcd
#
# Track frame offsets:
# 150
# 14871
# 26182
# 58329
# 71300
# 88957
# 119540
# 131357
# 143699
# 153861
# 177987
# 204533
# 218890
# 238407
# 256779
#
# Disc length: 3637 seconds
#
#
# Revision: 0
# Processed by: cddbd v1.5.2PL0 Copyright (c) Steve Scherf et al.
# Submitted via: FreeRIP 2.945 
#
DISCID=e30e330f
DTITLE=Luan e Leomar  - Luan e Leomar (Ao Vivo)  no buteco
DYEAR=2007
DGENRE=sertanejo
TTITLE0=Luan e Leomar (Ao Vivo) - Nada a ver
TTITLE1=Luan e Leomar (Ao Vivo) - ja era
TTITLE2=Luan e Leomar (Ao Vivo) - canarinho prisioneiro
TTITLE3=Luan e Leomar (Ao Vivo) - astronalta de mármore
TTITLE4=Luan e Leomar (Ao Vivo) - o mundo parou
TTITLE5=Luan e Leomar (Ao Vivo) - quarto vizinho
TTITLE6=Luan e Leomar (Ao Vivo) - vem ficar comigo
TTITLE7=Luan e Leomar (Ao Vivo) - aos trancos e barrancos
TTITLE8=Luan e Leomar (Ao Vivo) - cade voce
TTITLE9=Luan e Leomar (Ao Vivo) - boate azul
TTITLE10=Luan e Leomar (Ao Vivo) - amor rebelde
TTITLE11=Luan e Leomar (Ao Vivo) - não há nada
TTITLE12=Luan e Leomar (Ao Vivo) - sega seu caminho
TTITLE13=Luan e Leomar (Ao Vivo) - modas de viola
TTITLE14=Luan e Leomar (Ao Vivo) - ja era (bonus track)
EXTD=aurora fm
EXTT0=
EXTT1=
EXTT2=
EXTT3=
EXTT4=
EXTT5=
EXTT6=
EXTT7=
EXTT8=
EXTT9=
EXTT10=
EXTT11=
EXTT12=
EXTT13=
EXTT14=
PLAYORDER=
